<svg width="18" height="18" viewBox="0 0 18 18" fill="none" xmlns="http://www.w3.org/2000/svg">
<path d="M9.45117 10.8C9.18358 10.8 8.95943 10.7136 8.77873 10.5408C8.59739 10.3686 8.50673 10.155 8.50673 9.9C8.50673 9.645 8.59739 9.4311 8.77873 9.2583C8.95943 9.0861 9.18358 9 9.45117 9C9.71876 9 9.94323 9.0861 10.1246 9.2583C10.3053 9.4311 10.3956 9.645 10.3956 9.9C10.3956 10.155 10.3053 10.3686 10.1246 10.5408C9.94323 10.7136 9.71876 10.8 9.45117 10.8ZM5.67339 10.8C5.4058 10.8 5.18134 10.7136 5.00001 10.5408C4.8193 10.3686 4.72895 10.155 4.72895 9.9C4.72895 9.645 4.8193 9.4311 5.00001 9.2583C5.18134 9.0861 5.4058 9 5.67339 9C5.94099 9 6.16545 9.0861 6.34678 9.2583C6.52749 9.4311 6.61784 9.645 6.61784 9.9C6.61784 10.155 6.52749 10.3686 6.34678 10.5408C6.16545 10.7136 5.94099 10.8 5.67339 10.8ZM13.2289 10.8C12.9614 10.8 12.7372 10.7136 12.5565 10.5408C12.3752 10.3686 12.2845 10.155 12.2845 9.9C12.2845 9.645 12.3752 9.4311 12.5565 9.2583C12.7372 9.0861 12.9614 9 13.2289 9C13.4965 9 13.7207 9.0861 13.9014 9.2583C14.0827 9.4311 14.1734 9.645 14.1734 9.9C14.1734 10.155 14.0827 10.3686 13.9014 10.5408C13.7207 10.7136 13.4965 10.8 13.2289 10.8ZM9.45117 14.4C9.18358 14.4 8.95943 14.3136 8.77873 14.1408C8.59739 13.9686 8.50673 13.755 8.50673 13.5C8.50673 13.245 8.59739 13.0314 8.77873 12.8592C8.95943 12.6864 9.18358 12.6 9.45117 12.6C9.71876 12.6 9.94323 12.6864 10.1246 12.8592C10.3053 13.0314 10.3956 13.245 10.3956 13.5C10.3956 13.755 10.3053 13.9686 10.1246 14.1408C9.94323 14.3136 9.71876 14.4 9.45117 14.4ZM5.67339 14.4C5.4058 14.4 5.18134 14.3136 5.00001 14.1408C4.8193 13.9686 4.72895 13.755 4.72895 13.5C4.72895 13.245 4.8193 13.0314 5.00001 12.8592C5.18134 12.6864 5.4058 12.6 5.67339 12.6C5.94099 12.6 6.16545 12.6864 6.34678 12.8592C6.52749 13.0314 6.61784 13.245 6.61784 13.5C6.61784 13.755 6.52749 13.9686 6.34678 14.1408C6.16545 14.3136 5.94099 14.4 5.67339 14.4ZM13.2289 14.4C12.9614 14.4 12.7372 14.3136 12.5565 14.1408C12.3752 13.9686 12.2845 13.755 12.2845 13.5C12.2845 13.245 12.3752 13.0314 12.5565 12.8592C12.7372 12.6864 12.9614 12.6 13.2289 12.6C13.4965 12.6 13.7207 12.6864 13.9014 12.8592C14.0827 13.0314 14.1734 13.245 14.1734 13.5C14.1734 13.755 14.0827 13.9686 13.9014 14.1408C13.7207 14.3136 13.4965 14.4 13.2289 14.4ZM2.84006 18C2.32062 18 1.87578 17.8239 1.50556 17.4717C1.13597 17.1189 0.951172 16.695 0.951172 16.2V3.6C0.951172 3.105 1.13597 2.6814 1.50556 2.3292C1.87578 1.9764 2.32062 1.8 2.84006 1.8H3.78451V0H5.67339V1.8H13.2289V0H15.1178V1.8H16.0623C16.5817 1.8 17.0266 1.9764 17.3968 2.3292C17.7664 2.6814 17.9512 3.105 17.9512 3.6V16.2C17.9512 16.695 17.7664 17.1189 17.3968 17.4717C17.0266 17.8239 16.5817 18 16.0623 18H2.84006ZM2.84006 16.2H16.0623V7.2H2.84006V16.2Z" fill="#B8AFAA"/>
</svg>
