<svg width="18" height="18" viewBox="0 0 18 18" fill="none" xmlns="http://www.w3.org/2000/svg">
<path d="M0 2.39287C0 1.79955 0.237053 1.23053 0.65901 0.810995C1.08097 0.391456 1.65326 0.155762 2.25 0.155762L15.75 0.155762C16.3467 0.155762 16.919 0.391456 17.341 0.810995C17.7629 1.23053 18 1.79955 18 2.39287V11.3413C18 11.9346 17.7629 12.5036 17.341 12.9232C16.919 13.3427 16.3467 13.5784 15.75 13.5784H4.96575C4.66741 13.5785 4.3813 13.6964 4.17037 13.9061L0.96075 17.0974C0.882147 17.1757 0.781932 17.2291 0.672791 17.2508C0.563649 17.2725 0.450486 17.2615 0.347624 17.2193C0.244763 17.177 0.156827 17.1053 0.0949469 17.0133C0.0330667 16.9214 2.36417e-05 16.8132 0 16.7025L0 2.39287ZM5.625 6.86708C5.625 6.57042 5.50647 6.28591 5.2955 6.07615C5.08452 5.86638 4.79837 5.74853 4.5 5.74853C4.20163 5.74853 3.91548 5.86638 3.7045 6.07615C3.49353 6.28591 3.375 6.57042 3.375 6.86708C3.375 7.16374 3.49353 7.44825 3.7045 7.65802C3.91548 7.86779 4.20163 7.98564 4.5 7.98564C4.79837 7.98564 5.08452 7.86779 5.2955 7.65802C5.50647 7.44825 5.625 7.16374 5.625 6.86708ZM10.125 6.86708C10.125 6.57042 10.0065 6.28591 9.7955 6.07615C9.58452 5.86638 9.29837 5.74853 9 5.74853C8.70163 5.74853 8.41548 5.86638 8.2045 6.07615C7.99353 6.28591 7.875 6.57042 7.875 6.86708C7.875 7.16374 7.99353 7.44825 8.2045 7.65802C8.41548 7.86779 8.70163 7.98564 9 7.98564C9.29837 7.98564 9.58452 7.86779 9.7955 7.65802C10.0065 7.44825 10.125 7.16374 10.125 6.86708ZM13.5 7.98564C13.7984 7.98564 14.0845 7.86779 14.2955 7.65802C14.5065 7.44825 14.625 7.16374 14.625 6.86708C14.625 6.57042 14.5065 6.28591 14.2955 6.07615C14.0845 5.86638 13.7984 5.74853 13.5 5.74853C13.2016 5.74853 12.9155 5.86638 12.7045 6.07615C12.4935 6.28591 12.375 6.57042 12.375 6.86708C12.375 7.16374 12.4935 7.44825 12.7045 7.65802C12.9155 7.86779 13.2016 7.98564 13.5 7.98564Z" fill="#B8AFAA"/>
</svg>
