<svg width="14" height="18" viewBox="0 0 14 18" fill="none" xmlns="http://www.w3.org/2000/svg">
<path d="M12.8678 0C13.4671 0 13.9512 0.503789 13.9512 1.125C13.9512 1.74621 13.4671 2.25 12.8678 2.25V2.63602C12.8678 4.12734 12.2957 5.5582 11.2801 6.61289L8.98477 9L11.2801 11.3871C12.2957 12.4418 12.8678 13.8727 12.8678 15.3633V15.75C13.4671 15.75 13.9512 16.2527 13.9512 16.875C13.9512 17.4973 13.4671 18 12.8678 18H2.03451C1.4363 18 0.951172 17.4973 0.951172 16.875C0.951172 16.2527 1.4363 15.75 2.03451 15.75V15.3633C2.03451 13.8727 2.60529 12.4418 3.62091 11.3871L5.91758 9L3.62091 6.61289C2.60529 5.5582 2.03451 4.12734 2.03451 2.63602V2.25C1.4363 2.25 0.951172 1.74621 0.951172 1.125C0.951172 0.503789 1.4363 0 2.03451 0H12.8678ZM9.74987 12.9762L7.45117 10.5926L5.15247 12.9762C4.5431 13.609 4.20117 14.4703 4.20117 15.3633V15.75H10.7012V15.3633C10.7012 14.4703 10.3592 13.609 9.74987 12.9762Z" fill="#B8AFAA"/>
</svg>
