<svg width="14" height="14" viewBox="0 0 14 14" fill="none" xmlns="http://www.w3.org/2000/svg">
<path fill-rule="evenodd" clip-rule="evenodd" d="M2.33333 0.388889C2.33333 0.174113 2.50744 0 2.72222 0H11.2778C11.4926 0 11.6667 0.174113 11.6667 0.388889V0.777778H13.6111C13.8259 0.777778 14 0.951891 14 1.16667V3.5C14 4.57388 13.1294 5.44444 12.0556 5.44444H11.4011C10.8441 7.02057 9.46427 8.20808 7.77778 8.49104V10.8889H10.1111C10.3259 10.8889 10.5 11.063 10.5 11.2778V13.6111C10.5 13.8259 10.3259 14 10.1111 14H3.88889C3.67411 14 3.5 13.8259 3.5 13.6111V11.2778C3.5 11.063 3.67411 10.8889 3.88889 10.8889H6.22222V8.49104C4.53573 8.20808 3.15595 7.02057 2.59887 5.44444H1.94444C0.870559 5.44444 0 4.57388 0 3.5V1.16667C0 0.951891 0.174113 0.777778 0.388889 0.777778H2.33333V0.388889ZM11.6667 3.88889V1.55556H13.2222V3.5C13.2222 4.14435 12.6999 4.66667 12.0556 4.66667H11.6667V3.88889ZM2.33333 1.55556H0.777778V3.5C0.777778 4.14435 1.30011 4.66667 1.94444 4.66667H2.33333V3.88889V1.55556Z" fill="#B8AFAA"/>
</svg>
