<svg width="15" height="14" viewBox="0 0 15 14" fill="none" xmlns="http://www.w3.org/2000/svg">
<path d="M3.52734 7.00063C3.5298 7.72791 3.62088 8.45218 3.79858 9.15743H6.63349V5.01007H3.75921C3.60798 5.66287 3.53021 6.33054 3.52734 7.00063Z" fill="#C4BAB5"/>
<path d="M7.54303 5.3844V9.53176H10.3779C10.563 8.82742 10.6614 8.10314 10.671 7.37496C10.6696 6.70503 10.5933 6.03737 10.4436 5.3844H7.54303Z" fill="#C4BAB5"/>
<path d="M7.00513 0C5.62071 0 4.26738 0.410529 3.11628 1.17967C1.96517 1.94882 1.06799 3.04203 0.538199 4.32107C0.00840396 5.60011 -0.130215 7.00752 0.139873 8.36534C0.40996 9.72316 1.07662 10.9704 2.05556 11.9493C3.03449 12.9283 4.28173 13.5949 5.63955 13.865C6.99737 14.1351 8.40479 13.9965 9.68382 13.4667C10.9629 12.9369 12.0561 12.0397 12.8252 10.8886C13.5944 9.73751 14.0049 8.38418 14.0049 6.99976C14.0049 5.14331 13.2674 3.36289 11.9547 2.05018C10.642 0.737473 8.86158 0 7.00513 0V0ZM12.3512 9.93528H10.7675C10.4681 10.8727 10.0253 11.7582 9.45505 12.5602C9.03421 12.7436 8.5939 12.8786 8.14259 12.9627C8.95084 12.0844 9.5729 11.0516 9.97128 9.92653H7.38137V13.0545H6.64202V9.93528H4.03899C4.43684 11.0619 5.05892 12.0963 5.86767 12.9758C5.42566 12.8927 4.99427 12.7606 4.58147 12.5821C4.00916 11.7733 3.56636 10.8804 3.26901 9.93528H1.65907C1.51931 9.68033 1.39796 9.4157 1.29595 9.14343H3.04589C2.88192 8.44052 2.79681 7.72153 2.79215 6.99976C2.79239 6.33072 2.86278 5.66356 3.00215 5.0092H1.21283C1.30483 4.73774 1.41594 4.47313 1.54532 4.21735H3.21214C3.52489 3.17572 4.00992 2.19383 4.64709 1.31245C5.05114 1.14504 5.47211 1.02182 5.90267 0.944967C5.03237 1.87902 4.37555 2.99113 3.97774 4.20423H6.64202V0.87497H7.38137V4.21735H10.0457C9.64855 3.00619 8.99328 1.89566 8.12509 0.962467C8.55496 1.03377 8.97591 1.15111 9.38068 1.31245C10.0141 2.18747 10.4976 3.16178 10.8113 4.19548H12.4606C12.5899 4.45126 12.701 4.71587 12.7931 4.98733H11.0169C11.1592 5.64868 11.2311 6.32326 11.2312 6.99976C11.229 7.72575 11.1453 8.44921 10.9819 9.15656H12.7318C12.6236 9.42483 12.4964 9.68506 12.3512 9.93528Z" fill="#C4BAB5"/>
</svg>
