<svg width="12" height="14" viewBox="0 0 12 14" fill="none" xmlns="http://www.w3.org/2000/svg">
<path fill-rule="evenodd" clip-rule="evenodd" d="M-1.11265e-07 1.27273C-4.98152e-08 0.569819 0.580372 5.07377e-08 1.2963 1.13326e-07L10.3704 9.06607e-07C11.0863 9.69195e-07 11.6667 0.56982 11.6667 1.27273L11.6667 12.7273C11.6667 13.4302 11.0863 14 10.3704 14L1.2963 14C0.58037 14 -1.1741e-06 13.4302 -1.11265e-06 12.7273L-1.11265e-07 1.27273ZM10.3704 1.27273L1.2963 1.27273L1.2963 12.7273L10.3704 12.7273L10.3704 1.27273Z" fill="#B8AFAA"/>
<path fill-rule="evenodd" clip-rule="evenodd" d="M2.33301 0.622221C2.33301 0.278578 2.60087 2.34174e-08 2.9313 5.23042e-08L5.62361 2.87673e-07C5.95403 3.1656e-07 6.2219 0.278578 6.2219 0.622222L6.2219 5.59999C6.2219 5.84502 6.08362 6.06723 5.8687 6.16761C5.65377 6.26798 5.40221 6.22783 5.22612 6.06504L4.27745 5.18805L3.32878 6.06504C3.15269 6.22783 2.90113 6.26798 2.6862 6.16761C2.47128 6.06723 2.33301 5.84502 2.33301 5.59999L2.33301 0.622221ZM3.52959 1.24444L3.52959 4.2144L3.87997 3.89049C4.10665 3.68094 4.44825 3.68094 4.67493 3.89049L5.02531 4.2144L5.02532 1.24444L3.52959 1.24444Z" fill="#B8AFAA"/>
<path fill-rule="evenodd" clip-rule="evenodd" d="M2.33301 8.16623C2.33301 7.95146 2.63148 7.77734 2.99967 7.77734L6.33301 7.77734C6.7012 7.77734 6.99967 7.95146 6.99967 8.16623C6.99967 8.38101 6.7012 8.55512 6.33301 8.55512L2.99967 8.55512C2.63148 8.55512 2.33301 8.38101 2.33301 8.16623Z" fill="#B8AFAA"/>
<path fill-rule="evenodd" clip-rule="evenodd" d="M2.33301 10.1137C2.33301 9.68416 2.61159 9.33594 2.95523 9.33594L7.93301 9.33594C8.27665 9.33594 8.55523 9.68416 8.55523 10.1137C8.55523 10.5433 8.27665 10.8915 7.93301 10.8915L2.95523 10.8915C2.61159 10.8915 2.33301 10.5433 2.33301 10.1137Z" fill="#B8AFAA"/>
</svg>
