<svg width="14" height="14" viewBox="0 0 14 14" fill="none" xmlns="http://www.w3.org/2000/svg">
<path d="M9.34619 0.000552147C8.39263 0.000552147 7.50385 0.376017 6.77134 1.08719C5.93939 1.89554 5.55865 2.88942 5.67003 3.95177C5.75357 4.74024 6.12408 5.53534 6.71793 6.24652L2.59795 10.2496L1.8518 9.52465C1.48811 9.16962 1.18636 9.46392 0.822093 9.8184L0.466923 10.1806C0.102092 10.5334 -0.199093 10.8101 0.16517 11.164L0.910176 11.8895L0.324855 12.4582C0.238172 12.5419 0.169378 12.6414 0.122433 12.751C0.0754876 12.8606 0.051319 12.9781 0.051319 13.0968C0.051319 13.2155 0.0754876 13.3331 0.122433 13.4426C0.169378 13.5522 0.238172 13.6517 0.324855 13.7354C0.688549 14.0882 1.27444 14.0882 1.63927 13.7354L8.10338 7.45463C8.80349 7.88089 9.56384 8.11004 10.3049 8.11004C11.2579 8.11004 12.1483 7.73457 12.8803 7.02285C13.7128 6.21504 14.093 5.22117 13.981 4.15882C13.881 3.20304 13.3588 2.24119 12.5251 1.43229C11.5806 0.513503 10.4526 0 9.34619 0V0.000552147ZM9.38199 1.13909C10.1736 1.13909 10.9959 1.53278 11.7079 2.22628C12.341 2.83918 12.7359 3.55256 12.8092 4.24496C12.8848 4.96497 12.624 5.65074 12.0455 6.21228C11.5272 6.71474 10.9231 6.97094 10.2696 6.97094C9.47746 6.97094 8.65687 6.5767 7.94312 5.8843C7.31063 5.26976 6.91568 4.55803 6.84238 3.86563C6.76737 3.14562 7.02707 2.4604 7.60614 1.89831C8.1244 1.39584 8.72848 1.13909 9.38142 1.13909H9.38199Z" fill="#C4BAB5"/>
</svg>
