<svg width="13" height="14" viewBox="0 0 13 14" fill="none" xmlns="http://www.w3.org/2000/svg">
<path d="M11.05 14L1.95 14C1.43283 14 0.936838 13.7787 0.571142 13.3849C0.205446 12.9911 4.99766e-07 12.457 4.77422e-07 11.9L2.80836e-08 0.7C2.06354e-08 0.514348 0.0684819 0.336301 0.190381 0.205025C0.312279 0.0737498 0.477609 1.73145e-08 0.65 2.3564e-08L9.75 3.5346e-07C9.92239 3.5971e-07 10.0877 0.0737501 10.2096 0.205026C10.3315 0.336301 10.4 0.514349 10.4 0.7L10.4 9.1L13 9.1L13 11.9C13 12.457 12.7946 12.9911 12.4289 13.3849C12.0632 13.7787 11.5672 14 11.05 14ZM10.4 10.5L10.4 11.9C10.4 12.0857 10.4685 12.2637 10.5904 12.395C10.7123 12.5263 10.8776 12.6 11.05 12.6C11.2224 12.6 11.3877 12.5263 11.5096 12.395C11.6315 12.2637 11.7 12.0857 11.7 11.9L11.7 10.5L10.4 10.5ZM2.6 3.5L2.6 4.9L7.8 4.9L7.8 3.5L2.6 3.5ZM2.6 6.3L2.6 7.7L7.8 7.7L7.8 6.3L2.6 6.3ZM2.6 9.1L2.6 10.5L5.85 10.5L5.85 9.1L2.6 9.1Z" fill="#B8AFAA"/>
</svg>
