<svg width="11" height="14" viewBox="0 0 11 14" fill="none" xmlns="http://www.w3.org/2000/svg">
<path d="M3.05556 6.36364H7.94444V4.45455C7.94444 3.75189 7.70573 3.15199 7.2283 2.65483C6.75087 2.15767 6.17477 1.90909 5.5 1.90909C4.82523 1.90909 4.24913 2.15767 3.7717 2.65483C3.29427 3.15199 3.05556 3.75189 3.05556 4.45455V6.36364ZM11 7.31818V13.0455C11 13.3106 10.9109 13.536 10.7326 13.7216C10.5544 13.9072 10.338 14 10.0833 14H0.916667C0.662037 14 0.445602 13.9072 0.267361 13.7216C0.0891204 13.536 0 13.3106 0 13.0455V7.31818C0 7.05303 0.0891204 6.82765 0.267361 6.64205C0.445602 6.45644 0.662037 6.36364 0.916667 6.36364H1.22222V4.45455C1.22222 3.23485 1.64236 2.1875 2.48264 1.3125C3.32292 0.4375 4.3287 0 5.5 0C6.6713 0 7.67708 0.4375 8.51736 1.3125C9.35764 2.1875 9.77778 3.23485 9.77778 4.45455V6.36364H10.0833C10.338 6.36364 10.5544 6.45644 10.7326 6.64205C10.9109 6.82765 11 7.05303 11 7.31818Z" fill="#B8AAAA"/>
</svg>
