<svg width="10" height="14" viewBox="0 0 10 14" fill="none" xmlns="http://www.w3.org/2000/svg">
<path d="M8.33333 0H1.66667C1.22464 0 0.800716 0.184374 0.488155 0.512563C0.175595 0.840752 0 1.28587 0 1.75V12.25C0 12.7141 0.175595 13.1592 0.488155 13.4874C0.800716 13.8156 1.22464 14 1.66667 14H8.33333C8.77536 14 9.19928 13.8156 9.51184 13.4874C9.8244 13.1592 10 12.7141 10 12.25V1.75C10 1.28587 9.8244 0.840752 9.51184 0.512563C9.19928 0.184374 8.77536 0 8.33333 0V0ZM3.33333 5.14762C3.33332 5.07022 3.35286 4.99419 3.38997 4.92731C3.42708 4.86042 3.48043 4.80507 3.54457 4.76691C3.6087 4.72874 3.68134 4.70913 3.75505 4.71007C3.82877 4.711 3.90093 4.73246 3.96417 4.77225L6.90417 6.62463C6.96596 6.66347 7.01711 6.71847 7.05263 6.78426C7.08814 6.85005 7.10681 6.92438 7.10681 7C7.10681 7.07562 7.08814 7.14995 7.05263 7.21574C7.01711 7.28153 6.96596 7.33653 6.90417 7.37537L3.96417 9.22775C3.90087 9.26758 3.82863 9.28904 3.75484 9.28994C3.68106 9.29084 3.60837 9.27115 3.5442 9.23288C3.48004 9.19461 3.42671 9.13914 3.38966 9.07213C3.35261 9.00512 3.33317 8.92898 3.33333 8.8515V5.1485V5.14762Z" fill="#C4BAB5"/>
</svg>
