<svg width="15" height="11" viewBox="0 0 15 11" fill="none" xmlns="http://www.w3.org/2000/svg">
<path d="M12.602 0H1.40195C0.631953 0 0.00895312 0.61875 0.00895312 1.375L0.00195312 9.625C0.00195312 10.3813 0.631953 11 1.40195 11H12.602C13.372 11 14.002 10.3813 14.002 9.625V1.375C14.002 0.61875 13.372 0 12.602 0ZM12.322 2.92188L7.37295 5.96062C7.14895 6.09812 6.85495 6.09812 6.63095 5.96062L1.68195 2.92188C1.61176 2.88318 1.5503 2.83089 1.50128 2.76819C1.45225 2.70548 1.4167 2.63366 1.39676 2.55707C1.37682 2.48048 1.37291 2.40071 1.38526 2.32259C1.39762 2.24447 1.42599 2.16962 1.46865 2.10258C1.51131 2.03554 1.56738 1.9777 1.63346 1.93256C1.69954 1.88742 1.77426 1.85591 1.8531 1.83996C1.93194 1.824 2.01325 1.82391 2.09212 1.83971C2.17099 1.85551 2.24578 1.88687 2.31195 1.93187L7.00195 4.8125L11.692 1.93187C11.7581 1.88687 11.8329 1.85551 11.9118 1.83971C11.9907 1.82391 12.072 1.824 12.1508 1.83996C12.2296 1.85591 12.3044 1.88742 12.3704 1.93256C12.4365 1.9777 12.4926 2.03554 12.5353 2.10258C12.5779 2.16962 12.6063 2.24447 12.6186 2.32259C12.631 2.40071 12.6271 2.48048 12.6072 2.55707C12.5872 2.63366 12.5517 2.70548 12.5026 2.76819C12.4536 2.83089 12.3921 2.88318 12.322 2.92188V2.92188Z" fill="#B8AFAA"/>
</svg>
