<svg width="10" height="18" viewBox="0 0 10 18" fill="none" xmlns="http://www.w3.org/2000/svg">
<path d="M5.00001 3.60059C5.21892 3.60053 5.43567 3.55391 5.6379 3.46338C5.84012 3.37285 6.02386 3.24019 6.17861 3.07298C6.33337 2.90576 6.45611 2.70727 6.53983 2.48882C6.62355 2.27038 6.66662 2.03626 6.66656 1.79984C6.66651 1.56343 6.62334 1.32933 6.53951 1.11094C6.45569 0.892537 6.33285 0.694107 6.17802 0.526976C6.02319 0.359845 5.8394 0.227286 5.63713 0.136867C5.43486 0.0464484 5.21808 -5.9037e-05 4.99917 5.6243e-08C4.55706 0.0001194 4.13311 0.189907 3.82057 0.527612C3.50803 0.865317 3.33251 1.32328 3.33262 1.80074C3.33273 2.27821 3.50846 2.73608 3.82116 3.07361C4.13385 3.41115 4.5579 3.60071 5.00001 3.60059ZM9.98134 10.4247C9.66053 8.82734 9.09974 6.20586 8.27979 5.12056C7.48234 4.06495 5.87578 4.02085 5.00001 4.02085C4.12423 4.02085 2.51767 4.06495 1.72022 5.12056C0.900277 6.20586 0.33948 8.82734 0.0186681 10.4247C-0.15882 11.3093 0.980272 11.6342 1.27775 10.7442C1.72022 9.41858 2.06187 8.30538 2.81015 7.38206C3.20346 9.99813 1.75189 14.5508 1.66689 17.0994C1.66675 17.3098 1.73486 17.5136 1.85938 17.6753C1.9839 17.8371 2.15696 17.9467 2.3485 17.985C2.54004 18.0233 2.73795 17.9879 2.90784 17.8849C3.07773 17.782 3.20886 17.6181 3.27845 17.4216C3.65926 15.9934 5.00001 12.0194 5.00001 12.0194C5.00001 12.0194 6.34075 15.9934 6.72156 17.4216C6.79115 17.6181 6.92229 17.782 7.09218 17.8849C7.26207 17.9879 7.45997 18.0233 7.65151 17.985C7.84305 17.9467 8.01612 17.8371 8.14064 17.6753C8.26516 17.5136 8.33326 17.3098 8.33312 17.0994C8.24813 14.5508 6.79655 9.99814 7.18986 7.38296C7.93815 8.30628 8.27979 9.41949 8.72226 10.7451C9.01891 11.6342 10.1588 11.3093 9.98134 10.4247Z" fill="#B8AFAA"/>
</svg>
