<svg width="24" height="16" viewBox="0 0 24 16" fill="none" xmlns="http://www.w3.org/2000/svg">
<path d="M10.909 15.4518C10.909 15.4518 12.1211 15.4518 12.1211 14.2396C12.1211 13.0275 10.909 9.39113 6.06046 9.39113C1.21196 9.39113 -0.000166893 13.0275 -0.000166893 14.2396C-0.000166893 15.4518 1.21196 15.4518 1.21196 15.4518H10.909ZM6.06046 8.17901C5.09604 8.17901 4.17111 7.79589 3.48916 7.11394C2.8072 6.43198 2.42408 5.50706 2.42408 4.54263C2.42408 3.5782 2.8072 2.65327 3.48916 1.97132C4.17111 1.28937 5.09604 0.90625 6.06046 0.90625C7.02489 0.90625 7.94982 1.28937 8.63177 1.97132C9.31372 2.65327 9.69684 3.5782 9.69684 4.54263C9.69684 5.50706 9.31372 6.43198 8.63177 7.11394C7.94982 7.79589 7.02489 8.17901 6.06046 8.17901Z" fill="#B8AFAA"/>
<rect width="10.6667" height="2.66668" transform="matrix(-1 0 0 1 24 12.4629)" fill="#B8AFAA"/>
<path d="M24 1.79614H10.6666V2.68504V4.46282H24V1.79614Z" fill="#B8AFAA"/>
<path d="M10.6665 7.12964H23.9999V9.79632H12.6665C11.5619 9.79632 10.6665 8.90089 10.6665 7.79632V7.12964Z" fill="#B8AFAA"/>
</svg>
