<svg width="18" height="11" viewBox="0 0 18 11" fill="none" xmlns="http://www.w3.org/2000/svg">
<path d="M5.72831 10.4546C5.72831 10.4546 4.91013 10.4546 4.91013 9.63638C4.91013 8.8182 5.72831 6.36364 9.00105 6.36364C12.2738 6.36364 13.092 8.8182 13.092 9.63638C13.092 10.4546 12.2738 10.4546 12.2738 10.4546H5.72831ZM9.00105 5.54546C9.65204 5.54546 10.2764 5.28686 10.7367 4.82654C11.197 4.36622 11.4556 3.74189 11.4556 3.09091C11.4556 2.43992 11.197 1.81559 10.7367 1.35527C10.2764 0.894957 9.65204 0.636353 9.00105 0.636353C8.35006 0.636353 7.72573 0.894957 7.26542 1.35527C6.8051 1.81559 6.54649 2.43992 6.54649 3.09091C6.54649 3.74189 6.8051 4.36622 7.26542 4.82654C7.72573 5.28686 8.35006 5.54546 9.00105 5.54546Z" fill="#B8AFAA"/>
<path fill-rule="evenodd" clip-rule="evenodd" d="M4.26759 10.4552C4.1463 10.1997 4.08581 9.91969 4.09086 9.63698C4.09086 8.52834 4.64723 7.38697 5.67486 6.59333C5.16194 6.43529 4.62755 6.358 4.09086 6.36424C0.818123 6.36424 -6.10352e-05 8.81879 -6.10352e-05 9.63698C-6.10352e-05 10.4552 0.818123 10.4552 0.818123 10.4552H4.26759Z" fill="#B8AFAA"/>
<path d="M3.68165 5.54612C4.22414 5.54612 4.74441 5.33062 5.12801 4.94702C5.5116 4.56342 5.72711 4.04315 5.72711 3.50066C5.72711 2.95817 5.5116 2.4379 5.12801 2.0543C4.74441 1.6707 4.22414 1.4552 3.68165 1.4552C3.13916 1.4552 2.61888 1.6707 2.23529 2.0543C1.85169 2.4379 1.63618 2.95817 1.63618 3.50066C1.63618 4.04315 1.85169 4.56342 2.23529 4.94702C2.61888 5.33062 3.13916 5.54612 3.68165 5.54612Z" fill="#B8AFAA"/>
<path fill-rule="evenodd" clip-rule="evenodd" d="M13.7324 10.4552C13.8537 10.1997 13.9142 9.91969 13.9091 9.63698C13.9091 8.52834 13.3528 7.38697 12.3251 6.59333C12.838 6.43529 13.3724 6.358 13.9091 6.36424C17.1819 6.36424 18 8.81879 18 9.63698C18 10.4552 17.1819 10.4552 17.1819 10.4552H13.7324Z" fill="#B8AFAA"/>
<path d="M14.3183 5.54612C13.7758 5.54612 13.2556 5.33062 12.872 4.94702C12.4884 4.56342 12.2729 4.04315 12.2729 3.50066C12.2729 2.95817 12.4884 2.4379 12.872 2.0543C13.2556 1.6707 13.7758 1.4552 14.3183 1.4552C14.8608 1.4552 15.3811 1.6707 15.7647 2.0543C16.1483 2.4379 16.3638 2.95817 16.3638 3.50066C16.3638 4.04315 16.1483 4.56342 15.7647 4.94702C15.3811 5.33062 14.8608 5.54612 14.3183 5.54612Z" fill="#B8AFAA"/>
</svg>
