<svg width="18" height="18" viewBox="0 0 18 18" fill="none" xmlns="http://www.w3.org/2000/svg">
<path d="M4.2 16C4.2 16 3 16 3 14.8333C3 13.6667 4.2 10.1667 9 10.1667C13.8 10.1667 15 13.6667 15 14.8333C15 16 13.8 16 13.8 16H4.2ZM9 9C9.95478 9 10.8705 8.63125 11.5456 7.97487C12.2207 7.3185 12.6 6.42826 12.6 5.5C12.6 4.57174 12.2207 3.6815 11.5456 3.02513C10.8705 2.36875 9.95478 2 9 2C8.04522 2 7.12955 2.36875 6.45442 3.02513C5.77928 3.6815 5.4 4.57174 5.4 5.5C5.4 6.42826 5.77928 7.3185 6.45442 7.97487C7.12955 8.63125 8.04522 9 9 9Z" fill="#656060"/>
<rect width="2" height="18" transform="matrix(-1 0 0 1 6 0)" fill="#B8AFAA"/>
<rect width="2" height="14" transform="matrix(-1 0 0 1 2 2)" fill="#B8AFAA"/>
<rect width="2" height="14" transform="matrix(-1 0 0 1 18 2)" fill="#B8AFAA"/>
<rect width="2" height="18" transform="matrix(-1 0 0 1 14 0)" fill="#B8AFAA"/>
</svg>
