<svg width="14" height="15" viewBox="0 0 14 15" fill="none" xmlns="http://www.w3.org/2000/svg">
<path d="M7.55014 1.01248C6.13685 0.901185 4.72305 1.22115 3.4958 1.93004C2.26855 2.63893 1.28571 3.70333 0.677332 4.98239C0.0689549 6.26144 -0.136283 7.69487 0.0887772 9.09299C0.313837 10.4911 0.958586 11.788 1.93771 12.8121C2.91683 13.8362 4.18417 14.5392 5.57203 14.8281C6.95989 15.1169 8.40286 14.9781 9.70998 14.4299C11.0171 13.8816 12.1268 12.9499 12.8922 11.7579C13.6575 10.566 14.0426 9.16995 13.9963 7.75463C13.991 7.58078 13.9169 7.41612 13.7901 7.29687C13.6634 7.17763 13.4944 7.11357 13.3203 7.11878C13.1463 7.124 12.9814 7.19806 12.8621 7.32468C12.7427 7.4513 12.6785 7.62011 12.6838 7.79396C12.7281 9.1337 12.2968 10.4459 11.466 11.4987C10.6352 12.5514 9.45851 13.2768 8.14398 13.5465C6.82946 13.8163 5.46178 13.6131 4.28278 12.9728C3.10377 12.3326 2.1894 11.2965 1.70134 10.0478C1.21329 8.79913 1.18298 7.41828 1.61579 6.14944C2.0486 4.8806 2.91664 3.80549 4.06642 3.11423C5.2162 2.42297 6.57366 2.16009 7.89875 2.37206C9.22385 2.58403 10.4312 3.25721 11.3074 4.27255L11.4859 4.48931H9.40427L9.31589 4.4963C9.15882 4.51789 9.01488 4.59555 8.91069 4.71492C8.8065 4.8343 8.74909 4.98732 8.74909 5.14569C8.74909 5.30407 8.8065 5.45709 8.91069 5.57646C9.01488 5.69584 9.15882 5.7735 9.31589 5.79509L9.40427 5.80121H12.9043L12.9935 5.79509C13.1354 5.77563 13.267 5.71034 13.3683 5.60919C13.4695 5.50803 13.5349 5.37657 13.5544 5.23484L13.5605 5.14569V1.64963L13.5544 1.56048C13.5349 1.41876 13.4695 1.28729 13.3683 1.18614C13.267 1.08499 13.1354 1.0197 12.9935 1.00024L12.9043 0.994122L12.815 1.00024C12.6731 1.0197 12.5415 1.08499 12.4402 1.18614C12.339 1.28729 12.2736 1.41876 12.2541 1.56048L12.248 1.64963L12.2489 3.35659C11.0479 1.99395 9.36219 1.15298 7.55014 1.01248Z" fill="#B8AFAA"/>
</svg>
