<svg width="13" height="13" viewBox="0 0 13 13" fill="none" xmlns="http://www.w3.org/2000/svg">
<path d="M5.55942 11.1188C6.79289 11.1186 7.99083 10.7056 8.96247 9.9458L12.0174 13.0007L13 12.0181L9.9451 8.96317C10.7054 7.99143 11.1185 6.79322 11.1188 5.55942C11.1188 2.49409 8.62474 0 5.55942 0C2.49409 0 0 2.49409 0 5.55942C0 8.62474 2.49409 11.1188 5.55942 11.1188ZM5.55942 1.38985C7.85893 1.38985 9.72898 3.2599 9.72898 5.55942C9.72898 7.85893 7.85893 9.72898 5.55942 9.72898C3.2599 9.72898 1.38985 7.85893 1.38985 5.55942C1.38985 3.2599 3.2599 1.38985 5.55942 1.38985Z" fill="#C4BAB5"/>
<path d="M6.5408 4.57536C6.80418 4.83943 6.94942 5.18829 6.94942 5.55799H8.33928C8.33989 5.19275 8.26811 4.83102 8.12807 4.4937C7.98804 4.15637 7.78253 3.85015 7.52343 3.59273C6.47131 2.54201 4.64713 2.54201 3.5957 3.59273L4.57694 4.57675C5.10509 4.05 6.01544 4.05139 6.5408 4.57536Z" fill="#C4BAB5"/>
</svg>
