<svg width="18" height="19" viewBox="0 0 18 19" fill="none" xmlns="http://www.w3.org/2000/svg">
<path d="M0.930446 0.0685723C0.822829 0.0144121 0.702266 -0.00826997 0.582471 0.00310617C0.462676 0.0144823 0.348459 0.05946 0.252812 0.132923C0.157165 0.206386 0.0839273 0.305385 0.0414301 0.418659C-0.001067 0.531933 -0.0111177 0.654934 0.0124215 0.773671L1.81633 7.0484C1.84996 7.16534 1.91571 7.27035 2.006 7.35137C2.0963 7.43238 2.20748 7.48612 2.32677 7.5064L9.64268 8.73935C9.98726 8.80792 9.98726 9.30472 9.64268 9.37329L2.32677 10.6062C2.20748 10.6265 2.0963 10.6803 2.006 10.7613C1.91571 10.8423 1.84996 10.9473 1.81633 11.0642L0.0124215 17.339C-0.0111177 17.4577 -0.001067 17.5807 0.0414301 17.694C0.0839273 17.8073 0.157165 17.9063 0.252812 17.9797C0.348459 18.0532 0.462676 18.0982 0.582471 18.1095C0.702266 18.1209 0.822829 18.0982 0.930446 18.0441L17.6452 9.63463C17.7518 9.58085 17.8415 9.49827 17.9041 9.39614C17.9668 9.29401 18 9.17635 18 9.05632C18 8.93629 17.9668 8.81863 17.9041 8.7165C17.8415 8.61436 17.7518 8.53179 17.6452 8.47801L0.930446 0.0685723Z" fill="#C4BAB5"/>
</svg>
