<svg width="15" height="20" viewBox="0 0 15 20" fill="none" xmlns="http://www.w3.org/2000/svg">
<path d="M1.5 19.0531C1.5 19.0531 0 19.0531 0 17.5437C0 16.0344 1.5 11.5063 7.5 11.5063C13.5 11.5063 15 16.0344 15 17.5437C15 19.0531 13.5 19.0531 13.5 19.0531H1.5ZM7.5 9.99699C8.69347 9.99699 9.83807 9.51993 10.682 8.67076C11.5259 7.82159 12 6.66987 12 5.46896C12 4.26805 11.5259 3.11632 10.682 2.26715C9.83807 1.41798 8.69347 0.940918 7.5 0.940918C6.30653 0.940918 5.16193 1.41798 4.31802 2.26715C3.47411 3.11632 3 4.26805 3 5.46896C3 6.66987 3.47411 7.82159 4.31802 8.67076C5.16193 9.51993 6.30653 9.99699 7.5 9.99699Z" fill="#B8B7AA"/>
</svg>
