<svg width="14" height="11" viewBox="0 0 14 11" fill="none" xmlns="http://www.w3.org/2000/svg">
<path d="M8.6246 5.09375C8.6246 5.55788 8.44023 6.003 8.11204 6.33119C7.78385 6.65938 7.33873 6.84375 6.8746 6.84375C6.41048 6.84375 5.96536 6.65938 5.63717 6.33119C5.30898 6.003 5.1246 5.55788 5.1246 5.09375C5.1246 4.62962 5.30898 4.1845 5.63717 3.85631C5.96536 3.52812 6.41048 3.34375 6.8746 3.34375C7.33873 3.34375 7.78385 3.52812 8.11204 3.85631C8.44023 4.1845 8.6246 4.62962 8.6246 5.09375ZM0.090229 4.69063C1.57148 1.57031 3.81054 0 6.8121 0C9.81523 0 12.0527 1.57031 13.534 4.69219C13.5934 4.818 13.6242 4.9554 13.6242 5.09453C13.6242 5.23366 13.5934 5.37107 13.534 5.49687C12.0527 8.61719 9.81367 10.1875 6.8121 10.1875C3.80898 10.1875 1.57148 8.61719 0.090229 5.49531C-0.0300837 5.24219 -0.0300837 4.94844 0.090229 4.69063ZM6.8746 7.84375C8.39335 7.84375 9.6246 6.6125 9.6246 5.09375C9.6246 3.575 8.39335 2.34375 6.8746 2.34375C5.35585 2.34375 4.1246 3.575 4.1246 5.09375C4.1246 6.6125 5.35585 7.84375 6.8746 7.84375Z" fill="#C4BAB5"/>
</svg>
