<svg width="14" height="13" viewBox="0 0 14 13" fill="none" xmlns="http://www.w3.org/2000/svg">
<path d="M6.8746 7.86658C6.41048 7.86658 5.96536 7.68221 5.63717 7.35402C5.30898 7.02583 5.1246 6.58071 5.1246 6.11658C5.1246 6.06533 5.12695 6.01455 5.13132 5.9644L7.02679 7.85986C6.97664 7.86424 6.92601 7.86658 6.8746 7.86658ZM1.0821 0.703458L1.7496 0.0365826C1.77304 0.0131583 1.80483 0 1.83796 0C1.8711 0 1.90288 0.0131583 1.92632 0.0365826L3.63445 1.74518C4.57674 1.26361 5.63596 1.02283 6.8121 1.02283C9.81523 1.02283 12.0559 2.5869 13.534 5.71502C13.5934 5.84083 13.6242 5.97823 13.6242 6.11736C13.6242 6.2565 13.5934 6.3939 13.534 6.51971C12.9434 7.76377 12.2322 8.76091 11.4004 9.51111L13.0534 11.1635C13.0768 11.1869 13.0899 11.2187 13.0899 11.2518C13.0899 11.285 13.0768 11.3167 13.0534 11.3402L12.3863 12.0072C12.3629 12.0306 12.3311 12.0438 12.298 12.0438C12.2648 12.0438 12.233 12.0306 12.2096 12.0072L1.0821 0.880333C1.07048 0.868724 1.06126 0.854937 1.05497 0.839763C1.04868 0.824588 1.04544 0.808322 1.04544 0.791895C1.04544 0.775468 1.04868 0.759202 1.05497 0.744028C1.06126 0.728853 1.07048 0.715067 1.0821 0.703458ZM9.6246 6.11658C9.62465 5.64159 9.50166 5.17469 9.26762 4.76136C9.03359 4.34802 8.69648 4.00236 8.28915 3.75803C7.88181 3.51371 7.41814 3.37906 6.9433 3.36719C6.46845 3.35533 5.99863 3.46666 5.5796 3.69033L6.33929 4.45002C6.64567 4.35192 6.97314 4.34011 7.28579 4.41587C7.59844 4.49164 7.88418 4.65206 8.11165 4.87954C8.33913 5.10701 8.49955 5.39275 8.57531 5.7054C8.65108 6.01804 8.63927 6.34552 8.54117 6.6519L9.30085 7.41158C9.51404 7.01327 9.62527 6.56836 9.6246 6.11658Z" fill="#C4BAB5"/>
<path d="M0.0902243 5.71348C0.640224 4.55514 1.29486 3.61061 2.05413 2.87988L4.30632 5.13223C4.11647 5.6285 4.07439 6.16913 4.18516 6.6888C4.29593 7.20847 4.55481 7.68495 4.93053 8.06067C5.30625 8.43639 5.78273 8.69527 6.3024 8.80604C6.82207 8.91681 7.3627 8.87473 7.85897 8.68488L9.76929 10.5952C8.88304 11.0053 7.89731 11.2104 6.8121 11.2104C3.80897 11.2104 1.56835 9.64629 0.0902243 6.51816C0.0307999 6.39236 -1.90735e-05 6.25495 -1.90735e-05 6.11582C-1.90735e-05 5.97669 0.0307999 5.83928 0.0902243 5.71348Z" fill="#C4BAB5"/>
</svg>
