<svg width="14" height="14" viewBox="0 0 14 14" fill="none" xmlns="http://www.w3.org/2000/svg">
<path d="M12.25 3.32439H1.3125V2.87957L10.9375 2.09669V2.87957H12.25V1.54512C12.25 0.566522 11.4704 -0.120276 10.5184 0.0176172L1.7325 1.29335C0.779625 1.43214 0 2.34579 0 3.32439V12.2207C0 12.6926 0.184374 13.1452 0.512563 13.4789C0.840752 13.8125 1.28587 14 1.75 14H12.25C12.7141 14 13.1592 13.8125 13.4874 13.4789C13.8156 13.1452 14 12.6926 14 12.2207V5.10366C14 4.63176 13.8156 4.1792 13.4874 3.84552C13.1592 3.51185 12.7141 3.32439 12.25 3.32439ZM10.9375 9.55717C10.7651 9.55711 10.5944 9.52252 10.4351 9.45538C10.2758 9.38824 10.1311 9.28987 10.0092 9.16587C9.88736 9.04187 9.7907 8.89468 9.72477 8.7327C9.65885 8.57072 9.62494 8.39713 9.625 8.22183C9.62506 8.04652 9.65907 7.87295 9.72511 7.71102C9.79114 7.54908 9.8879 7.40196 10.0099 7.27804C10.1318 7.15413 10.2766 7.05585 10.4359 6.98882C10.5952 6.92178 10.766 6.88731 10.9384 6.88737C11.2866 6.88749 11.6205 7.02824 11.8666 7.27867C12.1128 7.5291 12.251 7.86868 12.2509 8.22271C12.2508 8.57675 12.1123 8.91624 11.866 9.1665C11.6197 9.41676 11.2857 9.55728 10.9375 9.55717Z" fill="#C4BAB5"/>
</svg>
